<svg width="21" height="24" viewBox="0 0 21 24" fill="none" xmlns="http://www.w3.org/2000/svg">
<path d="M15.6409 5.78009C15.6409 7.36853 15.0712 8.74347 13.9475 9.86737C12.8238 10.9911 11.4487 11.5607 9.86021 11.5607H9.85747C8.27104 11.5602 6.89684 10.9905 5.77312 9.86737C4.64922 8.74347 4.07976 7.36853 4.07976 5.78009C4.07976 4.1922 4.64922 2.81708 5.77312 1.69336C6.89629 0.570007 8.27049 0.000549319 9.85747 0H9.86021C11.4481 0 12.8232 0.569641 13.9475 1.69336C15.0712 2.81708 15.6409 4.1922 15.6409 5.78009Z" fill="#FCA311"/>
<path d="M20.0235 19.8726C20.0235 21.1257 19.6249 22.1403 18.8397 22.8876C18.0637 23.626 17.0374 24.0001 15.7896 24.0001H4.2334C2.98553 24.0001 1.95923 23.626 1.18378 22.8876C0.398071 22.1398 0 21.1254 0 19.8726C0 19.3906 0.0159302 18.9138 0.0477905 18.4553C0.0802002 17.9866 0.145752 17.4764 0.242432 16.9383C0.339844 16.3958 0.465088 15.8829 0.615051 15.4141C0.770691 14.9289 0.981262 14.4503 1.24182 13.9918C1.51245 13.5159 1.83032 13.1013 2.18665 12.76C2.56018 12.4028 3.01685 12.1158 3.54474 11.9067C4.0708 11.6987 4.65399 11.5933 5.27802 11.5933C5.52283 11.5933 5.75995 11.6934 6.21698 11.9911C6.50299 12.1777 6.83258 12.3901 7.19641 12.6227C7.51062 12.823 7.93616 13.0109 8.46222 13.1806C8.92456 13.3302 9.39386 13.4137 9.85748 13.4282C9.90857 13.43 9.95966 13.4309 10.0107 13.4309C10.5256 13.4309 11.0464 13.3465 11.5598 13.1806C12.0859 13.0109 12.512 12.823 12.826 12.6227C13.1937 12.3878 13.5233 12.1755 13.8051 11.9917C14.2625 11.6934 14.4992 11.5933 14.7446 11.5933C15.368 11.5933 15.9512 11.6987 16.4777 11.9067C17.0056 12.1158 17.4622 12.4033 17.8354 12.76C18.1923 13.1013 18.5101 13.5159 18.7806 13.9918C19.0413 14.4506 19.2523 14.9289 19.4073 15.4136C19.5575 15.8829 19.6831 16.3958 19.7805 16.9387C19.8766 17.4774 19.9424 17.9875 19.9746 18.455C20.007 18.912 20.0229 19.3888 20.0235 19.8726Z" fill="#14213D"/>
<path d="M9.86015 11.5607H9.8574V0H9.86015C11.448 0 12.8232 0.569641 13.9474 1.69336C15.0711 2.81708 15.6408 4.1922 15.6408 5.78009C15.6408 7.36853 15.0711 8.74347 13.9474 9.86737C12.8237 10.9911 11.4486 11.5607 9.86015 11.5607Z" fill="#FCA311"/>
<path d="M20.0234 19.8726C20.0234 21.1257 19.6248 22.1403 18.8396 22.8876C18.0636 23.626 17.0373 24.0001 15.7895 24.0001H9.8574V13.4282C9.90849 13.43 9.95957 13.4309 10.0107 13.4309C10.5256 13.4309 11.0463 13.3465 11.5597 13.1806C12.0858 13.0109 12.5119 12.823 12.8259 12.6227C13.1936 12.3878 13.5232 12.1755 13.805 11.9917C14.2624 11.6934 14.4991 11.5933 14.7445 11.5933C15.368 11.5933 15.9511 11.6987 16.4776 11.9067C17.0055 12.1158 17.4621 12.4033 17.8353 12.76C18.1922 13.1013 18.51 13.5159 18.7805 13.9918C19.0412 14.4506 19.2522 14.9289 19.4073 15.4136C19.5574 15.8829 19.683 16.3958 19.7804 16.9387C19.8766 17.4774 19.9423 17.9875 19.9745 18.455C20.0069 18.912 20.0229 19.3888 20.0234 19.8726Z" fill="#14213D"/>
</svg>
