<svg width="23" height="23" viewBox="0 0 23 23" fill="none" xmlns="http://www.w3.org/2000/svg">
<g clip-path="url(#clip0_110:129)">
<path d="M13.4907 16.0904C13.4284 15.8758 13.2693 15.7033 13.0614 15.6218L9.36508 14.1843C9.14467 14.0981 8.8955 14.1258 8.69904 14.261C8.50258 14.3951 8.38567 14.6165 8.38567 14.8542V21.3229C8.38567 21.6334 8.58596 21.9085 8.88017 22.0062L9.10442 22.0417C9.32867 22.0417 9.54621 21.9363 9.68325 21.7484L13.3786 16.7172C13.5128 16.537 13.554 16.3061 13.4907 16.0904Z" fill="#FCA311"/>
<path d="M22.7001 0.133049C22.4797 -0.0231592 22.1893 -0.0442426 21.9497 0.0812991L0.387196 11.3417C0.132279 11.4749 -0.0181794 11.7471 0.00386229 12.0336C0.0259039 12.3211 0.216612 12.5665 0.488779 12.6594L19.4159 19.1282L19.6468 19.1665C19.7781 19.1665 19.9065 19.1311 20.0215 19.062C20.2027 18.9509 20.3263 18.764 20.3589 18.5541L22.9943 0.824966C23.0326 0.556632 22.9186 0.290216 22.7001 0.133049Z" fill="#263F74"/>
<path d="M22.2801 0.000244141C22.1661 0.000244141 22.052 0.0270775 21.9476 0.0817025L0.385082 11.3421C0.130166 11.4753 -0.0202927 11.7475 0.00174894 12.034C0.0237906 12.3215 0.214499 12.5669 0.486666 12.6598L7.79971 15.1592L22.7689 0.189994C22.7468 0.169869 22.7238 0.150702 22.6989 0.132494C22.5743 0.0452858 22.4277 0.000244141 22.2801 0.000244141V0.000244141Z" fill="#14213D"/>
</g>
<defs>
<clipPath id="clip0_110:129">
<rect width="23" height="23" fill="white"/>
</clipPath>
</defs>
</svg>
