<svg width="25" height="25" viewBox="0 0 25 25" fill="none" xmlns="http://www.w3.org/2000/svg">
<path d="M12.5 0C19.403 0 25 5.59687 25 12.5C25 19.404 19.4031 25 12.5 25C5.59679 25 0 19.4039 0 12.5C0 5.59687 5.5961 0 12.5 0Z" fill="#14213D"/>
<path d="M9.37588 14.0594C8.51257 14.0594 7.81179 14.7594 7.81179 15.6235C7.81179 16.4875 8.5118 17.1876 9.37588 17.1876C10.24 17.1876 10.94 16.4875 10.94 15.6235C10.94 14.7594 10.2399 14.0594 9.37588 14.0594ZM8.91411 10.1578C8.30704 10.1578 7.81565 10.6492 7.81565 11.2562C7.81565 11.8625 8.30704 12.3547 8.91411 12.3547C10.9734 12.3547 12.6493 14.0304 12.6493 16.0899C12.6493 16.6961 13.1407 17.1883 13.7485 17.1883C14.3539 17.1883 14.847 16.6962 14.847 16.0899C14.847 12.8187 12.1853 10.1578 8.91411 10.1578ZM8.93522 6.25073C8.31493 6.25073 7.81179 6.75388 7.81179 7.37416C7.81179 7.99444 8.31493 8.49758 8.93522 8.49758C13.1079 8.49758 16.5032 11.8921 16.5032 16.0648C16.5032 16.6851 17.0056 17.1882 17.6266 17.1882C18.2477 17.1882 18.7501 16.6843 18.7501 16.0648C18.7493 10.653 14.3462 6.25073 8.93522 6.25073Z" fill="#FCA311"/>
</svg>
